<?xml version="1.0" encoding="UTF-8" standalone="no"?>
<!DOCTYPE svg PUBLIC "-//W3C//DTD SVG 1.1//EN"
 "http://www.w3.org/Graphics/SVG/1.1/DTD/svg11.dtd">
<!-- Generated by graphviz version 2.43.0 (0)
 -->
<!-- Title: CAN_Architecture Pages: 1 -->
<svg width="522pt" height="324pt"
 viewBox="0.00 0.00 522.00 324.00" xmlns="http://www.w3.org/2000/svg" xmlns:xlink="http://www.w3.org/1999/xlink">
<g id="graph0" class="graph" transform="scale(1 1) rotate(0) translate(4 320)">
<title>CAN_Architecture</title>
<polygon fill="white" stroke="transparent" points="-4,4 -4,-320 518,-320 518,4 -4,4"/>
<text text-anchor="start" x="71" y="-298.6" font-family="Helvetica,Arial,sans-serif" font-weight="bold" font-size="18.00">Autonomous Vehicle CAN Bus Architecture</text>
<!-- can_bus -->
<g id="node1" class="node">
<title>can_bus</title>
<polygon fill="#2ecc71" stroke="black" stroke-width="4" points="313,-288 205,-288 205,0 313,0 313,-288"/>
<text text-anchor="start" x="230.5" y="-153.4" font-family="Helvetica,Arial,sans-serif" font-weight="bold" font-size="12.00" fill="white">CAN BUS</text>
<text text-anchor="start" x="215.5" y="-141.4" font-family="Helvetica,Arial,sans-serif" font-size="12.00" fill="white">V&#45;HSM Secured</text>
<text text-anchor="start" x="216" y="-129.4" font-family="Helvetica,Arial,sans-serif" font-size="12.00" fill="white">HMAC&#45;SHA256</text>
</g>
<!-- controller -->
<g id="node3" class="node">
<title>controller</title>
<polygon fill="#9b59b6" stroke="black" stroke-width="2" points="514,-247 406,-247 406,-179 514,-179 514,-247"/>
<text text-anchor="start" x="416" y="-234.4" font-family="Helvetica,Arial,sans-serif" font-weight="bold" font-size="12.00" fill="white">AUTONOMOUS</text>
<text text-anchor="start" x="417.5" y="-222.4" font-family="Helvetica,Arial,sans-serif" font-weight="bold" font-size="12.00" fill="white">CONTROLLER</text>
<text text-anchor="start" x="438.5" y="-198.4" font-family="Helvetica,Arial,sans-serif" font-size="12.00" fill="white">AI Brain</text>
<text text-anchor="start" x="416" y="-186.4" font-family="Helvetica,Arial,sans-serif" font-size="12.00" fill="white">Attack Detection</text>
</g>
<!-- can_bus&#45;&gt;controller -->
<g id="edge2" class="edge">
<title>can_bus&#45;&gt;controller</title>
<path fill="none" stroke="#2980b9" stroke-width="3" d="M313.02,-176.93C318.96,-179.92 325.03,-182.69 331,-185 350.95,-192.73 373.51,-198.55 394.08,-202.84"/>
<polygon fill="#2980b9" stroke="#2980b9" stroke-width="3" points="393.34,-206.97 405.93,-205.18 394.97,-198.73 393.34,-206.97"/>
<text text-anchor="middle" x="359.5" y="-204" font-family="Helvetica,Arial,sans-serif" font-size="10.00"> &#160;Read</text>
</g>
<!-- actuators -->
<g id="node4" class="node">
<title>actuators</title>
<polygon fill="#e74c3c" stroke="black" stroke-width="2" points="514,-161 406,-161 406,-93 514,-93 514,-161"/>
<text text-anchor="start" x="422" y="-148.4" font-family="Helvetica,Arial,sans-serif" font-weight="bold" font-size="12.00" fill="white">ACTUATORS</text>
<text text-anchor="start" x="438.5" y="-124.4" font-family="Helvetica,Arial,sans-serif" font-size="12.00" fill="white">2 ECUs</text>
<text text-anchor="start" x="444" y="-112.4" font-family="Helvetica,Arial,sans-serif" font-size="12.00" fill="white">Brake</text>
<text text-anchor="start" x="437" y="-100.4" font-family="Helvetica,Arial,sans-serif" font-size="12.00" fill="white">Steering</text>
</g>
<!-- can_bus&#45;&gt;actuators -->
<g id="edge4" class="edge">
<title>can_bus&#45;&gt;actuators</title>
<path fill="none" stroke="#c0392b" stroke-width="3" d="M313.1,-138.65C319.14,-138.07 325.2,-137.51 331,-137 351.32,-135.2 373.47,-133.42 393.54,-131.86"/>
<polygon fill="#c0392b" stroke="#c0392b" stroke-width="3" points="394.09,-136.03 405.73,-130.92 393.45,-127.65 394.09,-136.03"/>
<text text-anchor="middle" x="359.5" y="-140" font-family="Helvetica,Arial,sans-serif" font-size="10.00"> &#160;Execute</text>
</g>
<!-- monitor -->
<g id="node5" class="node">
<title>monitor</title>
<polygon fill="#95a5a6" stroke="black" stroke-dasharray="5,2" points="514,-75 406,-75 406,-19 514,-19 514,-75"/>
<text text-anchor="start" x="432" y="-62.4" font-family="Helvetica,Arial,sans-serif" font-weight="bold" font-size="12.00" fill="white">MONITOR</text>
<text text-anchor="start" x="430" y="-38.4" font-family="Helvetica,Arial,sans-serif" font-size="12.00" fill="white">Dashboard</text>
<text text-anchor="start" x="426.5" y="-26.4" font-family="Helvetica,Arial,sans-serif" font-size="12.00" fill="white">Security Log</text>
</g>
<!-- can_bus&#45;&gt;monitor -->
<g id="edge5" class="edge">
<title>can_bus&#45;&gt;monitor</title>
<path fill="none" stroke="#7f8c8d" stroke-width="2" stroke-dasharray="5,2" d="M313.07,-118.13C338.71,-105.63 369.66,-90.55 396.45,-77.49"/>
<polygon fill="#7f8c8d" stroke="#7f8c8d" stroke-width="2" points="398.28,-80.49 405.74,-72.96 395.21,-74.2 398.28,-80.49"/>
<text text-anchor="middle" x="359.5" y="-111" font-family="Helvetica,Arial,sans-serif" font-size="10.00"> &#160;Observe</text>
</g>
<!-- sensors -->
<g id="node2" class="node">
<title>sensors</title>
<polygon fill="#4a90e2" stroke="black" stroke-width="2" points="108,-184 0,-184 0,-104 108,-104 108,-184"/>
<text text-anchor="start" x="23.5" y="-171.4" font-family="Helvetica,Arial,sans-serif" font-weight="bold" font-size="12.00" fill="white">SENSORS</text>
<text text-anchor="start" x="32.5" y="-147.4" font-family="Helvetica,Arial,sans-serif" font-size="12.00" fill="white">6 ECUs</text>
<text text-anchor="start" x="25.5" y="-135.4" font-family="Helvetica,Arial,sans-serif" font-size="12.00" fill="white">Wheels x4</text>
<text text-anchor="start" x="34.5" y="-123.4" font-family="Helvetica,Arial,sans-serif" font-size="12.00" fill="white">Engine</text>
<text text-anchor="start" x="31" y="-111.4" font-family="Helvetica,Arial,sans-serif" font-size="12.00" fill="white">Steering</text>
</g>
<!-- sensors&#45;&gt;can_bus -->
<g id="edge1" class="edge">
<title>sensors&#45;&gt;can_bus</title>
<path fill="none" stroke="#27ae60" stroke-width="3" d="M108.07,-144C133.95,-144 165.31,-144 192.64,-144"/>
<polygon fill="#27ae60" stroke="#27ae60" stroke-width="3" points="192.89,-148.2 204.89,-144 192.89,-139.8 192.89,-148.2"/>
<text text-anchor="middle" x="156.5" y="-147" font-family="Helvetica,Arial,sans-serif" font-size="10.00"> &#160;Sensor Data</text>
</g>
<!-- controller&#45;&gt;can_bus -->
<g id="edge3" class="edge">
<title>controller&#45;&gt;can_bus</title>
<path fill="none" stroke="#8e44ad" stroke-width="3" d="M407.31,-178.95C400.97,-175.6 394.44,-172.52 388,-170 368.14,-162.24 345.59,-156.67 325.02,-152.73"/>
<polygon fill="#8e44ad" stroke="#8e44ad" stroke-width="3" points="325.72,-148.59 313.17,-150.6 324.24,-156.86 325.72,-148.59"/>
<text text-anchor="middle" x="359.5" y="-173" font-family="Helvetica,Arial,sans-serif" font-size="10.00"> &#160;Commands</text>
</g>
</g>
</svg>
